<?xml version="1.0" encoding="UTF-8"?>
<!-- Created with Inkscape (http://www.inkscape.org/) -->
<svg width="132.04mm" height="89.103mm" version="1.1" viewBox="0 0 132.04 89.103" xmlns="http://www.w3.org/2000/svg" xmlns:cc="http://creativecommons.org/ns#" xmlns:dc="http://purl.org/dc/elements/1.1/" xmlns:rdf="http://www.w3.org/1999/02/22-rdf-syntax-ns#">
 <metadata>
  <rdf:RDF>
   <cc:Work rdf:about="">
    <dc:format>image/svg+xml</dc:format>
    <dc:type rdf:resource="http://purl.org/dc/dcmitype/StillImage"/>
    <dc:title/>
   </cc:Work>
  </rdf:RDF>
 </metadata>
 <defs>
  <marker id="Arrow1Lstart" overflow="visible" orient="auto">
   <path transform="matrix(.8 0 0 .8 10 0)" d="m0 0 5-5-17.5 5 17.5 5z" fill="context-stroke" fill-rule="evenodd" stroke="context-stroke" stroke-width="1pt"/>
  </marker>
  <marker id="Arrow1Lstart-3" overflow="visible" orient="auto">
   <path transform="matrix(.8 0 0 .8 10 0)" d="m0 0 5-5-17.5 5 17.5 5z" fill="context-stroke" fill-rule="evenodd" stroke="context-stroke" stroke-width="1pt"/>
  </marker>
 </defs>
 <g transform="translate(-20.107 -122.87)" fill="#fff" stroke-width=".26458">
  <path d="m63.987 124.21a43.88 43.88 0 0 0-43.879 43.879 43.88 43.88 0 0 0 43.879 43.879 43.88 43.88 0 0 0 43.879-43.879 43.88 43.88 0 0 0-43.879-43.879zm0.67179 13.464a30.415 30.415 0 0 1 0.7829 0.0103 30.415 30.415 0 0 1 0.7829 0.03 30.415 30.415 0 0 1 0.78135 0.0506 30.415 30.415 0 0 1 0.78031 0.0703 30.415 30.415 0 0 1 0.77773 0.091 30.415 30.415 0 0 1 0.77566 0.11059 30.415 30.415 0 0 1 0.77204 0.13022 30.415 30.415 0 0 1 0.76843 0.15038 30.415 30.415 0 0 1 0.76481 0.17001 30.415 30.415 0 0 1 0.75964 0.18966 30.415 30.415 0 0 1 0.75499 0.20929 30.415 30.415 0 0 1 0.74879 0.22841 30.415 30.415 0 0 1 0.74311 0.24804 30.415 30.415 0 0 1 0.73639 0.26665 30.415 30.415 0 0 1 0.72915 0.28578 30.415 30.415 0 0 1 0.72192 0.30437 30.415 30.415 0 0 1 0.71314 0.32298 30.415 30.415 0 0 1 0.70538 0.34106 30.415 30.415 0 0 1 0.69608 0.35915 30.415 30.415 0 0 1 0.68626 0.37672 30.415 30.415 0 0 1 0.67644 0.39429 30.415 30.415 0 0 1 0.66611 0.41187 30.415 30.415 0 0 1 0.65578 0.42891 30.415 30.415 0 0 1 0.64389 0.44545 30.415 30.415 0 0 1 0.63252 0.46199 30.415 30.415 0 0 1 0.62012 0.47852 30.415 30.415 0 0 1 0.60823 0.49351 30.415 30.415 0 0 1 0.5948 0.50953 30.415 30.415 0 0 1 0.58136 0.52452 30.415 30.415 0 0 1 0.56792 0.5395 30.415 30.415 0 0 1 0.55397 0.55397 30.415 30.415 0 0 1 0.5395 0.56741 30.415 30.415 0 0 1 0.52452 0.58187 30.415 30.415 0 0 1 0.50901 0.5948 30.415 30.415 0 0 1 0.49403 0.60772 30.415 30.415 0 0 1 0.47801 0.62063 30.415 30.415 0 0 1 0.46199 0.63252 30.415 30.415 0 0 1 0.44596 0.64389 30.415 30.415 0 0 1 0.4284 0.65525 30.415 30.415 0 0 1 0.41186 0.66611 30.415 30.415 0 0 1 0.39481 0.67696 30.415 30.415 0 0 1 0.37672 0.68627 30.415 30.415 0 0 1 0.35915 0.69608 30.415 30.415 0 0 1 0.34106 0.70487 30.415 30.415 0 0 1 0.32298 0.71365 30.415 30.415 0 0 1 0.30437 0.7214 30.415 30.415 0 0 1 0.28577 0.72967 30.415 30.415 0 0 1 0.26665 0.73639 30.415 30.415 0 0 1 0.24805 0.74259 30.415 30.415 0 0 1 0.22841 0.74931 30.415 30.415 0 0 1 0.20929 0.75447 30.415 30.415 0 0 1 0.18965 0.76017 30.415 30.415 0 0 1 0.17002 0.76429 30.415 30.415 0 0 1 0.15038 0.76894 30.415 30.415 0 0 1 0.13023 0.77205 30.415 30.415 0 0 1 0.11059 0.77515 30.415 30.415 0 0 1 0.09043 0.77824 30.415 30.415 0 0 1 0.0708 0.7798 30.415 30.415 0 0 1 0.05013 0.78187 30.415 30.415 0 0 1 0.03049 0.78238 30.415 30.415 0 0 1 0.0098 0.78341 30.415 30.415 0 0 1-0.08475 2.2727 30.415 30.415 0 0 1-0.25476 2.2603 30.415 30.415 0 0 1-0.42271 2.235 30.415 30.415 0 0 1-0.58911 2.1968 30.415 30.415 0 0 1-0.75086 2.1472 30.415 30.415 0 0 1-0.9095 2.0846 30.415 30.415 0 0 1-1.063 2.0107 30.415 30.415 0 0 1-1.2103 1.926 30.415 30.415 0 0 1-1.3508 1.8304 30.415 30.415 0 0 1-1.4836 1.7239 30.415 30.415 0 0 1-1.6082 1.6082 30.415 30.415 0 0 1-1.7239 1.4836 30.415 30.415 0 0 1-1.8304 1.3508 30.415 30.415 0 0 1-1.9255 1.2103 30.415 30.415 0 0 1-2.0112 1.0625 30.415 30.415 0 0 1-2.0846 0.90951 30.415 30.415 0 0 1-2.1466 0.75137 30.415 30.415 0 0 1-2.1973 0.58859 30.415 30.415 0 0 1-2.235 0.42323 30.415 30.415 0 0 1-2.2603 0.25425 30.415 30.415 0 0 1-2.2727 0.0853 30.415 30.415 0 0 1-2.2727-0.0853 30.415 30.415 0 0 1-2.2603-0.25425 30.415 30.415 0 0 1-2.235-0.42323 30.415 30.415 0 0 1-2.1968-0.58859 30.415 30.415 0 0 1-2.1472-0.75137 30.415 30.415 0 0 1-2.0846-0.90951 30.415 30.415 0 0 1-2.0112-1.0625 30.415 30.415 0 0 1-1.9255-1.2103 30.415 30.415 0 0 1-1.8304-1.3508 30.415 30.415 0 0 1-1.7239-1.4836 30.415 30.415 0 0 1-1.6082-1.6082 30.415 30.415 0 0 1-1.4836-1.7239 30.415 30.415 0 0 1-1.3508-1.8304 30.415 30.415 0 0 1-1.2103-1.926 30.415 30.415 0 0 1-1.063-2.0107 30.415 30.415 0 0 1-0.9095-2.0846 30.415 30.415 0 0 1-0.75086-2.1472 30.415 30.415 0 0 1-0.58911-2.1968 30.415 30.415 0 0 1-0.42271-2.235 30.415 30.415 0 0 1-0.25476-2.2603 30.415 30.415 0 0 1-0.08475-2.2727 30.415 30.415 0 0 1 0.08475-2.2732 30.415 30.415 0 0 1 0.25476-2.2603 30.415 30.415 0 0 1 0.42271-2.2345 30.415 30.415 0 0 1 0.58911-2.1973 30.415 30.415 0 0 1 0.75086-2.1466 30.415 30.415 0 0 1 0.9095-2.0852 30.415 30.415 0 0 1 1.063-2.0107 30.415 30.415 0 0 1 1.2103-1.926 30.415 30.415 0 0 1 1.3508-1.8299 30.415 30.415 0 0 1 1.4836-1.7239 30.415 30.415 0 0 1 1.6082-1.6087 30.415 30.415 0 0 1 1.7239-1.4836 30.415 30.415 0 0 1 1.8304-1.3503 30.415 30.415 0 0 1 1.9255-1.2103 30.415 30.415 0 0 1 2.0112-1.063 30.415 30.415 0 0 1 2.0846-0.90951 30.415 30.415 0 0 1 2.1472-0.75137 30.415 30.415 0 0 1 2.1968-0.5886 30.415 30.415 0 0 1 2.235-0.42271 30.415 30.415 0 0 1 2.2603-0.25477 30.415 30.415 0 0 1 2.2727-0.0853z" marker-start="url(#Arrow1Lstart)"/>
  <path d="m108.27 124.21a43.88 43.88 0 0 0-43.879 43.879 43.88 43.88 0 0 0 43.879 43.879 43.88 43.88 0 0 0 43.879-43.879 43.88 43.88 0 0 0-43.879-43.879zm0.6718 13.464a30.415 30.415 0 0 1 0.78289 0.0103 30.415 30.415 0 0 1 0.7829 0.03 30.415 30.415 0 0 1 0.78135 0.0506 30.415 30.415 0 0 1 0.78031 0.0703 30.415 30.415 0 0 1 0.77773 0.091 30.415 30.415 0 0 1 0.77567 0.11059 30.415 30.415 0 0 1 0.77204 0.13022 30.415 30.415 0 0 1 0.76843 0.15038 30.415 30.415 0 0 1 0.76481 0.17001 30.415 30.415 0 0 1 0.75965 0.18966 30.415 30.415 0 0 1 0.75499 0.20929 30.415 30.415 0 0 1 0.74879 0.22841 30.415 30.415 0 0 1 0.74311 0.24804 30.415 30.415 0 0 1 0.73639 0.26665 30.415 30.415 0 0 1 0.72915 0.28578 30.415 30.415 0 0 1 0.72192 0.30437 30.415 30.415 0 0 1 0.71314 0.32298 30.415 30.415 0 0 1 0.70538 0.34106 30.415 30.415 0 0 1 0.69608 0.35915 30.415 30.415 0 0 1 0.68626 0.37672 30.415 30.415 0 0 1 0.67645 0.39429 30.415 30.415 0 0 1 0.66611 0.41187 30.415 30.415 0 0 1 0.65577 0.42891 30.415 30.415 0 0 1 0.64389 0.44545 30.415 30.415 0 0 1 0.63252 0.46199 30.415 30.415 0 0 1 0.62012 0.47852 30.415 30.415 0 0 1 0.60823 0.49351 30.415 30.415 0 0 1 0.59479 0.50953 30.415 30.415 0 0 1 0.58136 0.52452 30.415 30.415 0 0 1 0.56793 0.5395 30.415 30.415 0 0 1 0.55397 0.55397 30.415 30.415 0 0 1 0.5395 0.56741 30.415 30.415 0 0 1 0.52451 0.58187 30.415 30.415 0 0 1 0.50902 0.5948 30.415 30.415 0 0 1 0.49403 0.60772 30.415 30.415 0 0 1 0.478 0.62063 30.415 30.415 0 0 1 0.46199 0.63252 30.415 30.415 0 0 1 0.44597 0.64389 30.415 30.415 0 0 1 0.42839 0.65525 30.415 30.415 0 0 1 0.41187 0.66611 30.415 30.415 0 0 1 0.3948 0.67696 30.415 30.415 0 0 1 0.37673 0.68627 30.415 30.415 0 0 1 0.35915 0.69608 30.415 30.415 0 0 1 0.34106 0.70487 30.415 30.415 0 0 1 0.32298 0.71365 30.415 30.415 0 0 1 0.30437 0.7214 30.415 30.415 0 0 1 0.28577 0.72967 30.415 30.415 0 0 1 0.26665 0.73639 30.415 30.415 0 0 1 0.24805 0.74259 30.415 30.415 0 0 1 0.22841 0.74931 30.415 30.415 0 0 1 0.20929 0.75447 30.415 30.415 0 0 1 0.18965 0.76017 30.415 30.415 0 0 1 0.17002 0.76429 30.415 30.415 0 0 1 0.15038 0.76894 30.415 30.415 0 0 1 0.13022 0.77205 30.415 30.415 0 0 1 0.11059 0.77515 30.415 30.415 0 0 1 0.0904 0.77824 30.415 30.415 0 0 1 0.0708 0.7798 30.415 30.415 0 0 1 0.0501 0.78187 30.415 30.415 0 0 1 0.0305 0.78238 30.415 30.415 0 0 1 0.01 0.78341 30.415 30.415 0 0 1-0.0847 2.2727 30.415 30.415 0 0 1-0.25477 2.2603 30.415 30.415 0 0 1-0.42271 2.235 30.415 30.415 0 0 1-0.58911 2.1968 30.415 30.415 0 0 1-0.75086 2.1472 30.415 30.415 0 0 1-0.9095 2.0846 30.415 30.415 0 0 1-1.063 2.0107 30.415 30.415 0 0 1-1.2103 1.926 30.415 30.415 0 0 1-1.3508 1.8304 30.415 30.415 0 0 1-1.4836 1.7239 30.415 30.415 0 0 1-1.6082 1.6082 30.415 30.415 0 0 1-1.7239 1.4836 30.415 30.415 0 0 1-1.8304 1.3508 30.415 30.415 0 0 1-1.9255 1.2103 30.415 30.415 0 0 1-2.0112 1.0625 30.415 30.415 0 0 1-2.0846 0.90951 30.415 30.415 0 0 1-2.1466 0.75137 30.415 30.415 0 0 1-2.1973 0.58859 30.415 30.415 0 0 1-2.235 0.42323 30.415 30.415 0 0 1-2.2603 0.25425 30.415 30.415 0 0 1-2.2727 0.0853 30.415 30.415 0 0 1-2.2727-0.0853 30.415 30.415 0 0 1-2.2603-0.25425 30.415 30.415 0 0 1-2.235-0.42323 30.415 30.415 0 0 1-2.1968-0.58859 30.415 30.415 0 0 1-2.1472-0.75137 30.415 30.415 0 0 1-2.0846-0.90951 30.415 30.415 0 0 1-2.0112-1.0625 30.415 30.415 0 0 1-1.9255-1.2103 30.415 30.415 0 0 1-1.8304-1.3508 30.415 30.415 0 0 1-1.7239-1.4836 30.415 30.415 0 0 1-1.6082-1.6082 30.415 30.415 0 0 1-1.4836-1.7239 30.415 30.415 0 0 1-1.3508-1.8304 30.415 30.415 0 0 1-1.2103-1.926 30.415 30.415 0 0 1-1.063-2.0107 30.415 30.415 0 0 1-0.90951-2.0846 30.415 30.415 0 0 1-0.75086-2.1472 30.415 30.415 0 0 1-0.58911-2.1968 30.415 30.415 0 0 1-0.42271-2.235 30.415 30.415 0 0 1-0.25477-2.2603 30.415 30.415 0 0 1-0.0847-2.2727 30.415 30.415 0 0 1 0.0847-2.2732 30.415 30.415 0 0 1 0.25477-2.2603 30.415 30.415 0 0 1 0.42271-2.2345 30.415 30.415 0 0 1 0.58911-2.1973 30.415 30.415 0 0 1 0.75086-2.1466 30.415 30.415 0 0 1 0.90951-2.0852 30.415 30.415 0 0 1 1.063-2.0107 30.415 30.415 0 0 1 1.2103-1.926 30.415 30.415 0 0 1 1.3508-1.8299 30.415 30.415 0 0 1 1.4836-1.7239 30.415 30.415 0 0 1 1.6082-1.6087 30.415 30.415 0 0 1 1.7239-1.4836 30.415 30.415 0 0 1 1.8304-1.3503 30.415 30.415 0 0 1 1.9255-1.2103 30.415 30.415 0 0 1 2.0112-1.063 30.415 30.415 0 0 1 2.0846-0.90951 30.415 30.415 0 0 1 2.1472-0.75137 30.415 30.415 0 0 1 2.1968-0.5886 30.415 30.415 0 0 1 2.235-0.42271 30.415 30.415 0 0 1 2.2603-0.25477 30.415 30.415 0 0 1 2.2727-0.0853z" marker-start="url(#Arrow1Lstart-3)"/>
  <rect x="76.225" y="146.12" width="21.415" height="49.043"/>
 </g>
</svg>
