<?xml version="1.0" encoding="UTF-8" standalone="no"?>
<!-- Created with Inkscape (http://www.inkscape.org/) -->

<svg
   width="210mm"
   height="297mm"
   viewBox="0 0 210 297"
   version="1.1"
   id="svg5"
   inkscape:version="1.2-dev (1:1.0+devel+202106190547+248f5ceb28)"
   sodipodi:docname="baikal-white-logo-1.svg"
   xmlns:inkscape="http://www.inkscape.org/namespaces/inkscape"
   xmlns:sodipodi="http://sodipodi.sourceforge.net/DTD/sodipodi-0.dtd"
   xmlns="http://www.w3.org/2000/svg"
   xmlns:svg="http://www.w3.org/2000/svg">
  <sodipodi:namedview
     id="namedview7"
     pagecolor="#ffffff"
     bordercolor="#666666"
     borderopacity="1.0"
     inkscape:pageshadow="2"
     inkscape:pageopacity="0.0"
     inkscape:pagecheckerboard="0"
     inkscape:document-units="mm"
     showgrid="false"
     showguides="true"
     inkscape:guide-bbox="true"
     inkscape:zoom="0.71000982"
     inkscape:cx="83.097442"
     inkscape:cy="561.96406"
     inkscape:window-width="1280"
     inkscape:window-height="627"
     inkscape:window-x="326"
     inkscape:window-y="115"
     inkscape:window-maximized="0"
     inkscape:current-layer="layer1" />
  <defs
     id="defs2">
    <marker
       style="overflow:visible"
       id="Arrow1Lstart"
       refX="0.0"
       refY="0.0"
       orient="auto"
       inkscape:stockid="Arrow1Lstart"
       inkscape:isstock="true">
      <path
         transform="scale(0.8) translate(12.5,0)"
         style="fill-rule:evenodd;fill:context-stroke;stroke:context-stroke;stroke-width:1.0pt"
         d="M 0.0,0.0 L 5.0,-5.0 L -12.5,0.0 L 5.0,5.0 L 0.0,0.0 z "
         id="path930" />
    </marker>
    <marker
       style="overflow:visible"
       id="Arrow1Lstart-3"
       refX="0"
       refY="0"
       orient="auto"
       inkscape:stockid="Arrow1Lstart"
       inkscape:isstock="true">
      <path
         transform="matrix(0.8,0,0,0.8,10,0)"
         style="fill:context-stroke;fill-rule:evenodd;stroke:context-stroke;stroke-width:1pt"
         d="M 0,0 5,-5 -12.5,0 5,5 Z"
         id="path930-6" />
    </marker>
  </defs>
  <g
     inkscape:label="Layer 1"
     inkscape:groupmode="layer"
     id="layer1">
    <path
       id="path1369"
       style="fill:#ffffff;fill-opacity:1;stroke-width:0.264583;marker-start:url(#Arrow1Lstart)"
       d="M 63.986941,124.21413 A 43.879534,43.879534 0 0 0 20.10745,168.09362 43.879534,43.879534 0 0 0 63.986941,211.97311 43.879534,43.879534 0 0 0 107.86643,168.09362 43.879534,43.879534 0 0 0 63.986941,124.21413 Z m 0.671793,13.46378 a 30.415333,30.415333 0 0 1 0.782897,0.0103 30.415333,30.415333 0 0 1 0.7829,0.03 30.415333,30.415333 0 0 1 0.781346,0.0506 30.415333,30.415333 0 0 1 0.780314,0.0703 30.415333,30.415333 0 0 1 0.77773,0.091 30.415333,30.415333 0 0 1 0.775665,0.11059 30.415333,30.415333 0 0 1 0.772044,0.13022 30.415333,30.415333 0 0 1 0.768429,0.15038 30.415333,30.415333 0 0 1 0.764813,0.17001 30.415333,30.415333 0 0 1 0.759642,0.18966 30.415333,30.415333 0 0 1 0.754994,0.20929 30.415333,30.415333 0 0 1 0.74879,0.22841 30.415333,30.415333 0 0 1 0.743108,0.24804 30.415333,30.415333 0 0 1 0.736389,0.26665 30.415333,30.415333 0 0 1 0.729154,0.28578 30.415333,30.415333 0 0 1 0.721919,0.30437 30.415333,30.415333 0 0 1 0.713136,0.32298 30.415333,30.415333 0 0 1 0.705382,0.34106 30.415333,30.415333 0 0 1 0.696082,0.35915 30.415333,30.415333 0 0 1 0.686263,0.37672 30.415333,30.415333 0 0 1 0.676444,0.39429 30.415333,30.415333 0 0 1 0.66611,0.41187 30.415333,30.415333 0 0 1 0.655775,0.42891 30.415333,30.415333 0 0 1 0.643887,0.44545 30.415333,30.415333 0 0 1 0.632521,0.46199 30.415333,30.415333 0 0 1 0.620117,0.47852 30.415333,30.415333 0 0 1 0.60823,0.49351 30.415333,30.415333 0 0 1 0.594796,0.50953 30.415333,30.415333 0 0 1 0.581361,0.52452 30.415333,30.415333 0 0 1 0.567923,0.5395 30.415333,30.415333 0 0 1 0.553972,0.55397 30.415333,30.415333 0 0 1 0.539501,0.56741 30.415333,30.415333 0 0 1 0.524515,0.58187 30.415333,30.415333 0 0 1 0.509013,0.5948 30.415333,30.415333 0 0 1 0.494028,0.60772 30.415333,30.415333 0 0 1 0.478007,0.62063 30.415333,30.415333 0 0 1 0.461989,0.63252 30.415333,30.415333 0 0 1 0.445965,0.64389 30.415333,30.415333 0 0 1 0.428398,0.65525 30.415333,30.415333 0 0 1 0.411861,0.66611 30.415333,30.415333 0 0 1 0.394808,0.67696 30.415333,30.415333 0 0 1 0.376722,0.68627 30.415333,30.415333 0 0 1 0.359151,0.69608 30.415333,30.415333 0 0 1 0.341064,0.70487 30.415333,30.415333 0 0 1 0.322979,0.71365 30.415333,30.415333 0 0 1 0.304374,0.7214 30.415333,30.415333 0 0 1 0.285771,0.72967 30.415333,30.415333 0 0 1 0.26665,0.73639 30.415333,30.415333 0 0 1 0.248047,0.74259 30.415333,30.415333 0 0 1 0.228409,0.74931 30.415333,30.415333 0 0 1 0.209288,0.75447 30.415333,30.415333 0 0 1 0.189654,0.76017 30.415333,30.415333 0 0 1 0.170016,0.76429 30.415333,30.415333 0 0 1 0.150378,0.76894 30.415333,30.415333 0 0 1 0.130226,0.77205 30.415333,30.415333 0 0 1 0.110587,0.77515 30.415333,30.415333 0 0 1 0.09043,0.77824 30.415333,30.415333 0 0 1 0.0708,0.7798 30.415333,30.415333 0 0 1 0.05013,0.78187 30.415333,30.415333 0 0 1 0.03049,0.78238 30.415333,30.415333 0 0 1 0.0098,0.78341 30.415333,30.415333 0 0 1 -0.08475,2.27273 30.415333,30.415333 0 0 1 -0.254765,2.26033 30.415333,30.415333 0 0 1 -0.422711,2.23501 30.415333,30.415333 0 0 1 -0.589114,2.19676 30.415333,30.415333 0 0 1 -0.750858,2.14715 30.415333,30.415333 0 0 1 -0.909505,2.08463 30.415333,30.415333 0 0 1 -1.062982,2.01073 30.415333,30.415333 0 0 1 -1.210263,1.92598 30.415333,30.415333 0 0 1 -1.350822,1.83038 30.415333,30.415333 0 0 1 -1.48363,1.72393 30.415333,30.415333 0 0 1 -1.608172,1.60817 30.415333,30.415333 0 0 1 -1.723924,1.48363 30.415333,30.415333 0 0 1 -1.83038,1.35082 30.415333,30.415333 0 0 1 -1.925465,1.21026 30.415333,30.415333 0 0 1 -2.011246,1.06247 30.415333,30.415333 0 0 1 -2.084626,0.90951 30.415333,30.415333 0 0 1 -2.146641,0.75137 30.415333,30.415333 0 0 1 -2.19728,0.58859 30.415333,30.415333 0 0 1 -2.235007,0.42323 30.415333,30.415333 0 0 1 -2.260327,0.25425 30.415333,30.415333 0 0 1 -2.272729,0.0853 30.415333,30.415333 0 0 1 -2.272731,-0.0853 30.415333,30.415333 0 0 1 -2.260325,-0.25425 30.415333,30.415333 0 0 1 -2.235006,-0.42323 30.415333,30.415333 0 0 1 -2.196764,-0.58859 30.415333,30.415333 0 0 1 -2.147158,-0.75137 30.415333,30.415333 0 0 1 -2.084625,-0.90951 30.415333,30.415333 0 0 1 -2.011249,-1.06247 30.415333,30.415333 0 0 1 -1.925463,-1.21026 30.415333,30.415333 0 0 1 -1.830379,-1.35082 30.415333,30.415333 0 0 1 -1.723925,-1.48363 30.415333,30.415333 0 0 1 -1.608172,-1.60817 30.415333,30.415333 0 0 1 -1.483629,-1.72393 30.415333,30.415333 0 0 1 -1.350823,-1.83038 30.415333,30.415333 0 0 1 -1.210262,-1.92598 30.415333,30.415333 0 0 1 -1.062985,-2.01073 30.415333,30.415333 0 0 1 -0.909505,-2.08463 30.415333,30.415333 0 0 1 -0.750858,-2.14715 30.415333,30.415333 0 0 1 -0.589111,-2.19676 30.415333,30.415333 0 0 1 -0.422714,-2.23501 30.415333,30.415333 0 0 1 -0.254765,-2.26033 30.415333,30.415333 0 0 1 -0.08475,-2.27273 30.415333,30.415333 0 0 1 0.08475,-2.27324 30.415333,30.415333 0 0 1 0.254765,-2.26033 30.415333,30.415333 0 0 1 0.422714,-2.23449 30.415333,30.415333 0 0 1 0.589111,-2.19728 30.415333,30.415333 0 0 1 0.750858,-2.14664 30.415333,30.415333 0 0 1 0.909505,-2.08515 30.415333,30.415333 0 0 1 1.062985,-2.01073 30.415333,30.415333 0 0 1 1.210262,-1.92598 30.415333,30.415333 0 0 1 1.350823,-1.82986 30.415333,30.415333 0 0 1 1.483629,-1.72392 30.415333,30.415333 0 0 1 1.608172,-1.60869 30.415333,30.415333 0 0 1 1.723925,-1.48363 30.415333,30.415333 0 0 1 1.830379,-1.35031 30.415333,30.415333 0 0 1 1.925463,-1.21026 30.415333,30.415333 0 0 1 2.011249,-1.06298 30.415333,30.415333 0 0 1 2.084625,-0.90951 30.415333,30.415333 0 0 1 2.147158,-0.75137 30.415333,30.415333 0 0 1 2.196764,-0.5886 30.415333,30.415333 0 0 1 2.235006,-0.42271 30.415333,30.415333 0 0 1 2.260325,-0.25477 30.415333,30.415333 0 0 1 2.272731,-0.0853 z" />
    <path
       id="path1369-7"
       style="fill:#ffffff;fill-opacity:1;stroke-width:0.264583;marker-start:url(#Arrow1Lstart-3)"
       d="m 108.26561,124.21413 a 43.879534,43.879534 0 0 0 -43.879492,43.87949 43.879534,43.879534 0 0 0 43.879492,43.87949 43.879534,43.879534 0 0 0 43.87949,-43.87949 43.879534,43.879534 0 0 0 -43.87949,-43.87949 z m 0.6718,13.46378 a 30.415333,30.415333 0 0 1 0.78289,0.0103 30.415333,30.415333 0 0 1 0.7829,0.03 30.415333,30.415333 0 0 1 0.78135,0.0506 30.415333,30.415333 0 0 1 0.78031,0.0703 30.415333,30.415333 0 0 1 0.77773,0.091 30.415333,30.415333 0 0 1 0.77567,0.11059 30.415333,30.415333 0 0 1 0.77204,0.13022 30.415333,30.415333 0 0 1 0.76843,0.15038 30.415333,30.415333 0 0 1 0.76481,0.17001 30.415333,30.415333 0 0 1 0.75965,0.18966 30.415333,30.415333 0 0 1 0.75499,0.20929 30.415333,30.415333 0 0 1 0.74879,0.22841 30.415333,30.415333 0 0 1 0.74311,0.24804 30.415333,30.415333 0 0 1 0.73639,0.26665 30.415333,30.415333 0 0 1 0.72915,0.28578 30.415333,30.415333 0 0 1 0.72192,0.30437 30.415333,30.415333 0 0 1 0.71314,0.32298 30.415333,30.415333 0 0 1 0.70538,0.34106 30.415333,30.415333 0 0 1 0.69608,0.35915 30.415333,30.415333 0 0 1 0.68626,0.37672 30.415333,30.415333 0 0 1 0.67645,0.39429 30.415333,30.415333 0 0 1 0.66611,0.41187 30.415333,30.415333 0 0 1 0.65577,0.42891 30.415333,30.415333 0 0 1 0.64389,0.44545 30.415333,30.415333 0 0 1 0.63252,0.46199 30.415333,30.415333 0 0 1 0.62012,0.47852 30.415333,30.415333 0 0 1 0.60823,0.49351 30.415333,30.415333 0 0 1 0.59479,0.50953 30.415333,30.415333 0 0 1 0.58136,0.52452 30.415333,30.415333 0 0 1 0.56793,0.5395 30.415333,30.415333 0 0 1 0.55397,0.55397 30.415333,30.415333 0 0 1 0.5395,0.56741 30.415333,30.415333 0 0 1 0.52451,0.58187 30.415333,30.415333 0 0 1 0.50902,0.5948 30.415333,30.415333 0 0 1 0.49403,0.60772 30.415333,30.415333 0 0 1 0.478,0.62063 30.415333,30.415333 0 0 1 0.46199,0.63252 30.415333,30.415333 0 0 1 0.44597,0.64389 30.415333,30.415333 0 0 1 0.42839,0.65525 30.415333,30.415333 0 0 1 0.41187,0.66611 30.415333,30.415333 0 0 1 0.3948,0.67696 30.415333,30.415333 0 0 1 0.37673,0.68627 30.415333,30.415333 0 0 1 0.35915,0.69608 30.415333,30.415333 0 0 1 0.34106,0.70487 30.415333,30.415333 0 0 1 0.32298,0.71365 30.415333,30.415333 0 0 1 0.30437,0.7214 30.415333,30.415333 0 0 1 0.28577,0.72967 30.415333,30.415333 0 0 1 0.26665,0.73639 30.415333,30.415333 0 0 1 0.24805,0.74259 30.415333,30.415333 0 0 1 0.22841,0.74931 30.415333,30.415333 0 0 1 0.20929,0.75447 30.415333,30.415333 0 0 1 0.18965,0.76017 30.415333,30.415333 0 0 1 0.17002,0.76429 30.415333,30.415333 0 0 1 0.15038,0.76894 30.415333,30.415333 0 0 1 0.13022,0.77205 30.415333,30.415333 0 0 1 0.11059,0.77515 30.415333,30.415333 0 0 1 0.0904,0.77824 30.415333,30.415333 0 0 1 0.0708,0.7798 30.415333,30.415333 0 0 1 0.0501,0.78187 30.415333,30.415333 0 0 1 0.0305,0.78238 30.415333,30.415333 0 0 1 0.01,0.78341 30.415333,30.415333 0 0 1 -0.0847,2.27273 30.415333,30.415333 0 0 1 -0.25477,2.26033 30.415333,30.415333 0 0 1 -0.42271,2.23501 30.415333,30.415333 0 0 1 -0.58911,2.19676 30.415333,30.415333 0 0 1 -0.75086,2.14715 30.415333,30.415333 0 0 1 -0.9095,2.08463 30.415333,30.415333 0 0 1 -1.06299,2.01073 30.415333,30.415333 0 0 1 -1.21026,1.92598 30.415333,30.415333 0 0 1 -1.35082,1.83038 30.415333,30.415333 0 0 1 -1.48363,1.72393 30.415333,30.415333 0 0 1 -1.60817,1.60817 30.415333,30.415333 0 0 1 -1.72393,1.48363 30.415333,30.415333 0 0 1 -1.83038,1.35082 30.415333,30.415333 0 0 1 -1.92546,1.21026 30.415333,30.415333 0 0 1 -2.01125,1.06247 30.415333,30.415333 0 0 1 -2.08462,0.90951 30.415333,30.415333 0 0 1 -2.14664,0.75137 30.415333,30.415333 0 0 1 -2.19728,0.58859 30.415333,30.415333 0 0 1 -2.23501,0.42323 30.415333,30.415333 0 0 1 -2.26033,0.25425 30.415333,30.415333 0 0 1 -2.27273,0.0853 30.415333,30.415333 0 0 1 -2.27273,-0.0853 30.415333,30.415333 0 0 1 -2.26032,-0.25425 30.415333,30.415333 0 0 1 -2.23501,-0.42323 30.415333,30.415333 0 0 1 -2.196762,-0.58859 30.415333,30.415333 0 0 1 -2.14716,-0.75137 30.415333,30.415333 0 0 1 -2.08463,-0.90951 30.415333,30.415333 0 0 1 -2.01125,-1.06247 30.415333,30.415333 0 0 1 -1.92546,-1.21026 30.415333,30.415333 0 0 1 -1.83038,-1.35082 30.415333,30.415333 0 0 1 -1.72392,-1.48363 30.415333,30.415333 0 0 1 -1.60817,-1.60817 30.415333,30.415333 0 0 1 -1.48363,-1.72393 30.415333,30.415333 0 0 1 -1.35083,-1.83038 30.415333,30.415333 0 0 1 -1.21026,-1.92598 30.415333,30.415333 0 0 1 -1.06298,-2.01073 30.415333,30.415333 0 0 1 -0.90951,-2.08463 30.415333,30.415333 0 0 1 -0.75086,-2.14715 30.415333,30.415333 0 0 1 -0.58911,-2.19676 30.415333,30.415333 0 0 1 -0.42271,-2.23501 30.415333,30.415333 0 0 1 -0.25477,-2.26033 30.415333,30.415333 0 0 1 -0.0847,-2.27273 30.415333,30.415333 0 0 1 0.0847,-2.27324 30.415333,30.415333 0 0 1 0.25477,-2.26033 30.415333,30.415333 0 0 1 0.42271,-2.23449 30.415333,30.415333 0 0 1 0.58911,-2.19728 30.415333,30.415333 0 0 1 0.75086,-2.14664 30.415333,30.415333 0 0 1 0.90951,-2.08515 30.415333,30.415333 0 0 1 1.06298,-2.01073 30.415333,30.415333 0 0 1 1.21026,-1.92598 30.415333,30.415333 0 0 1 1.35083,-1.82986 30.415333,30.415333 0 0 1 1.48363,-1.72392 30.415333,30.415333 0 0 1 1.60817,-1.60869 30.415333,30.415333 0 0 1 1.72392,-1.48363 30.415333,30.415333 0 0 1 1.83038,-1.35031 30.415333,30.415333 0 0 1 1.92546,-1.21026 30.415333,30.415333 0 0 1 2.01125,-1.06298 30.415333,30.415333 0 0 1 2.08463,-0.90951 30.415333,30.415333 0 0 1 2.14716,-0.75137 30.415333,30.415333 0 0 1 2.196762,-0.5886 30.415333,30.415333 0 0 1 2.23501,-0.42271 30.415333,30.415333 0 0 1 2.26032,-0.25477 30.415333,30.415333 0 0 1 2.27273,-0.0853 z" />
    <rect
       style="fill:#ffffff;fill-opacity:1;stroke-width:0.264583"
       id="rect1580"
       width="21.414764"
       height="49.043327"
       x="76.225433"
       y="146.1221" />
  </g>
</svg>
